HIERARCHY
ROOT joint_Root
{
	OFFSET 0.0 0.0 0.0
	CHANNELS 6 Xposition Yposition Zposition Zrotation Xrotation Yrotation 
	JOINT Hips
	{
		OFFSET -17.1583 93.1646 452.98
		CHANNELS 6 Xposition Yposition Zposition Zrotation Xrotation Yrotation 
		JOINT Spine
		{
			OFFSET 15.7357 0.0 0.0
			CHANNELS 6 Xposition Yposition Zposition Zrotation Xrotation Yrotation 
			JOINT Chest
			{
				OFFSET 8.98455 -0.406207 0.0
				CHANNELS 6 Xposition Yposition Zposition Zrotation Xrotation Yrotation 
				JOINT Neck
				{
					OFFSET 16.3773 0.0 0.0
					CHANNELS 6 Xposition Yposition Zposition Zrotation Xrotation Yrotation 
					JOINT Head
					{
						OFFSET 6.45672 0.0 0.0
						CHANNELS 6 Xposition Yposition Zposition Zrotation Xrotation Yrotation 
						End Site
						{
							OFFSET 0.0 0.0 0.0
						}
					}
				}
				JOINT Shoulder_L
				{
					OFFSET 12.9942 -0.242716 4.98039
					CHANNELS 6 Xposition Yposition Zposition Zrotation Xrotation Yrotation 
					JOINT UpperArm_L
					{
						OFFSET 5.34809 0.0 0.0
						CHANNELS 6 Xposition Yposition Zposition Zrotation Xrotation Yrotation 
						JOINT LowerArm_L
						{
							OFFSET 24.3286 1.87007e-05 0.0
							CHANNELS 6 Xposition Yposition Zposition Zrotation Xrotation Yrotation 
							JOINT Hand_L
							{
								OFFSET 22.2916 0.0 0.0
								CHANNELS 6 Xposition Yposition Zposition Zrotation Xrotation Yrotation 
								End Site
								{
									OFFSET 0.0 0.0 0.0
								}
							}
						}
					}
				}
				JOINT Shoulder_R
				{
					OFFSET 12.9945 -0.242716 -4.98039
					CHANNELS 6 Xposition Yposition Zposition Zrotation Xrotation Yrotation 
					JOINT UpperArm_R
					{
						OFFSET -5.34813 0.0 0.0
						CHANNELS 6 Xposition Yposition Zposition Zrotation Xrotation Yrotation 
						JOINT LowerArm_R
						{
							OFFSET -24.3289 0.000322201 0.0
							CHANNELS 6 Xposition Yposition Zposition Zrotation Xrotation Yrotation 
							JOINT Hand_R
							{
								OFFSET -22.2915 -0.000108084 0.0
								CHANNELS 6 Xposition Yposition Zposition Zrotation Xrotation Yrotation 
								End Site
								{
									OFFSET 0.0 0.0 0.0
								}
							}
						}
					}
				}
			}
		}
		JOINT UpperLeg_L
		{
			OFFSET -2.19248 -6.46944 0.0
			CHANNELS 6 Xposition Yposition Zposition Zrotation Xrotation Yrotation 
			JOINT LowerLeg_L
			{
				OFFSET 39.0811 0.0 -1.23785e-05
				CHANNELS 6 Xposition Yposition Zposition Zrotation Xrotation Yrotation 
				JOINT Foot_L
				{
					OFFSET 40.9854 0.0 -1.26872e-05
					CHANNELS 6 Xposition Yposition Zposition Zrotation Xrotation Yrotation 
					JOINT Toes_L
					{
						OFFSET 11.7543 0.0 0.0
						CHANNELS 6 Xposition Yposition Zposition Zrotation Xrotation Yrotation 
						End Site
						{
							OFFSET 0.0 0.0 0.0
						}
					}
				}
			}
		}
		JOINT UpperLeg_R
		{
			OFFSET -2.19251 6.46944 0.0
			CHANNELS 6 Xposition Yposition Zposition Zrotation Xrotation Yrotation 
			JOINT LowerLeg_R
			{
				OFFSET -39.0811 -0.00228153 -0.0401928
				CHANNELS 6 Xposition Yposition Zposition Zrotation Xrotation Yrotation 
				JOINT Foot_R
				{
					OFFSET -40.9854 0.0 0.0
					CHANNELS 6 Xposition Yposition Zposition Zrotation Xrotation Yrotation 
					JOINT Toes_R
					{
						OFFSET -11.7543 0.0 0.0
						CHANNELS 6 Xposition Yposition Zposition Zrotation Xrotation Yrotation 
						End Site
						{
							OFFSET 0.0 0.0 0.0
						}
					}
				}
			}
		}
	}
}
MOTION
Frames:	6
Frame Time:	0.0333333
0.000000 0.000000 0.000000 0.000000 0.000000 -0.000000 -2.955360 91.698700 -0.222079 82.557600 -4.026250 4.194920 15.735700 0.000005 -0.000001 64.352800 86.355500 -59.399400 8.984550 -0.406207 -0.000000 -1.023100 -3.533530 9.874230 16.377300 -0.000001 -0.000001 13.315600 4.354920 7.982770 6.456720 -0.000001 -0.000000 3.872210 8.245390 7.301940 12.994200 -0.242716 4.980390 -92.111600 6.495750 -71.948200 5.348090 -0.000007 -0.000001 -77.357600 32.127900 2.404990 24.328600 0.000019 0.000005 13.420400 28.133700 -26.840800 22.291600 -0.000001 0.000005 -3.918560 5.039130 6.475660 12.994500 -0.242716 -4.980390 87.863700 6.137450 -70.766200 -5.348130 -0.000001 -0.000004 -68.982800 4.423340 -9.073540 -24.328900 0.000322 -0.000009 14.938500 -16.822000 -137.326000 -22.291500 -0.000108 -0.000004 55.475400 5.643570 -14.431500 -2.192480 -6.469440 -0.000000 -170.600000 0.097837 -3.417760 39.081100 -0.000007 -0.000012 0.457514 -0.792817 29.989400 40.985400 -0.000006 -0.000013 0.782362 6.265870 -77.769100 11.754300 -0.000000 0.000003 0.000216 0.163901 -9.929250 -2.192510 6.469440 -0.000001 -168.812000 3.969080 -176.176000 -39.081100 -0.002282 -0.040193 0.134738 -0.449576 16.293700 -40.985400 0.000008 0.000006 5.490000 2.886490 -71.576700 -11.754300 -0.000006 -0.000006 -0.012393 0.288391 -4.851560
0.000000 0.000000 0.000000 0.000000 0.000000 -0.000000 -2.978910 91.697600 -0.224444 82.575500 -3.964150 4.182690 15.735700 0.000005 -0.000001 64.720200 86.346500 -59.786000 8.984550 -0.406207 -0.000000 -0.989180 -3.496040 9.836910 16.377300 -0.000001 -0.000001 13.268600 4.340260 7.958230 6.456720 -0.000001 -0.000000 3.832210 8.164310 7.184300 12.994200 -0.242716 4.980390 -92.120500 6.506620 -71.905700 5.348090 -0.000007 -0.000001 -77.407300 32.024900 2.369490 24.328600 0.000019 0.000005 13.429000 28.115300 -26.870000 22.291600 -0.000001 0.000005 -3.914300 5.035820 6.547990 12.994500 -0.242716 -4.980390 87.865100 6.131790 -70.761300 -5.348130 -0.000001 -0.000004 -69.003500 4.475140 -9.103640 -24.328900 0.000322 -0.000009 14.803400 -16.674900 -137.354000 -22.291500 -0.000108 -0.000004 55.625800 5.645440 -14.594700 -2.192480 -6.469440 -0.000000 -170.607000 0.130112 -3.454030 39.081100 -0.000007 -0.000012 0.457134 -0.792213 29.987700 40.985400 -0.000006 -0.000013 0.778664 6.288700 -77.716500 11.754300 -0.000000 0.000003 0.000358 0.161358 -10.032500 -2.192510 6.469440 -0.000001 -168.836000 4.094620 -176.206000 -39.081100 -0.002282 -0.040193 0.135157 -0.450688 16.304700 -40.985400 0.000008 0.000006 5.510460 2.977780 -71.553600 -11.754300 -0.000006 -0.000006 -0.012081 0.286248 -4.939360
0.000000 0.000000 0.000000 0.000000 0.000000 -0.000000 -3.006390 91.701000 -0.250436 82.589200 -3.818650 4.129000 15.735700 0.000005 -0.000001 64.693400 86.351800 -59.789300 8.984550 -0.406207 -0.000000 -1.001560 -3.492820 9.776230 16.377300 -0.000001 -0.000001 13.249100 4.314720 7.902210 6.456720 -0.000001 -0.000000 3.819300 8.095060 7.188270 12.994200 -0.242716 4.980390 -92.110800 6.472320 -71.893900 5.348090 -0.000007 -0.000001 -77.440600 32.005400 2.329980 24.328600 0.000019 0.000005 13.382100 27.931000 -26.925800 22.291600 -0.000001 0.000005 -3.949290 5.040250 6.451200 12.994500 -0.242716 -4.980390 87.872300 6.110680 -70.760300 -5.348130 -0.000001 -0.000004 -69.112500 4.465720 -9.089510 -24.328900 0.000322 -0.000009 14.825400 -16.687900 -137.331000 -22.291500 -0.000108 -0.000004 55.499300 5.644910 -14.548100 -2.192480 -6.469440 -0.000000 -170.612000 0.262649 -3.559980 39.081100 -0.000007 -0.000012 0.460503 -0.797935 29.991300 40.985400 -0.000006 -0.000013 0.752180 6.291230 -77.724800 11.754300 -0.000000 0.000003 0.000281 0.162761 -9.975540 -2.192510 6.469440 -0.000001 -168.812000 4.155250 -176.279000 -39.081100 -0.002282 -0.040193 0.136427 -0.456076 16.269300 -40.985400 0.000008 0.000006 5.564650 2.897280 -71.564700 -11.754300 -0.000006 -0.000006 -0.012701 0.290488 -4.765620
0.000000 0.000000 0.000000 0.000000 0.000000 -0.000000 -3.035950 91.706600 -0.261612 82.598500 -3.735250 4.105950 15.735700 0.000005 -0.000001 64.843800 86.363600 -59.963500 8.984550 -0.406207 -0.000000 -1.016840 -3.464330 9.728510 16.377300 -0.000001 -0.000001 13.294100 4.298770 7.925350 6.456720 -0.000001 -0.000000 3.889310 8.084030 7.078640 12.994200 -0.242716 4.980390 -92.119100 6.498420 -71.895500 5.348090 -0.000007 -0.000001 -77.418700 32.033500 2.285930 24.328600 0.000019 0.000005 13.372600 27.891800 -26.938700 22.291600 -0.000001 0.000005 -3.938440 5.041910 6.414840 12.994500 -0.242716 -4.980390 87.878700 6.100020 -70.782600 -5.348130 -0.000001 -0.000004 -69.157300 4.433450 -9.069990 -24.328900 0.000322 -0.000009 14.821600 -16.672800 -137.314000 -22.291500 -0.000108 -0.000004 55.339000 5.645090 -14.563600 -2.192480 -6.469440 -0.000000 -170.600000 0.313878 -3.591580 39.081100 -0.000007 -0.000012 0.456767 -0.792525 29.958000 40.985400 -0.000006 -0.000013 0.750341 6.350620 -77.688800 11.754300 -0.000000 0.000003 0.000335 0.161780 -10.015400 -2.192510 6.469440 -0.000001 -168.824000 4.281030 -176.307000 -39.081100 -0.002282 -0.040193 0.133189 -0.445881 16.238100 -40.985400 0.000008 0.000006 5.502500 2.930460 -71.505300 -11.754300 -0.000006 -0.000006 -0.012212 0.287151 -4.902380
0.000000 0.000000 0.000000 0.000000 0.000000 -0.000000 -3.053120 91.704600 -0.262082 82.615800 -3.667480 4.115700 15.735700 0.000005 -0.000001 65.140100 86.368000 -60.294000 8.984550 -0.406207 -0.000000 -1.011850 -3.423770 9.660500 16.377300 -0.000001 -0.000001 13.348100 4.297270 7.931940 6.456720 -0.000001 -0.000000 3.955830 8.080830 7.036290 12.994200 -0.242716 4.980390 -92.107500 6.464850 -71.900500 5.348090 -0.000007 -0.000001 -77.437800 31.995800 2.227350 24.328600 0.000019 0.000005 13.425400 27.963200 -26.978800 22.291600 -0.000001 0.000005 -3.882410 5.040310 6.450050 12.994500 -0.242716 -4.980390 87.885400 6.078860 -70.777800 -5.348130 -0.000001 -0.000004 -69.202300 4.457290 -9.112990 -24.328900 0.000322 -0.000009 14.800100 -16.625300 -137.278000 -22.291500 -0.000108 -0.000004 55.431500 5.646330 -14.675500 -2.192480 -6.469440 -0.000000 -170.596000 0.349474 -3.609900 39.081100 -0.000007 -0.000012 0.452675 -0.785175 29.965900 40.985400 -0.000006 -0.000013 0.734553 6.369950 -77.683700 11.754300 -0.000000 0.000003 0.000287 0.162636 -9.980620 -2.192510 6.469440 -0.000001 -168.813000 4.254900 -176.302000 -39.081100 -0.002282 -0.040193 0.133689 -0.447689 16.234900 -40.985400 0.000008 0.000006 5.527290 2.839450 -71.503400 -11.754300 -0.000006 -0.000006 -0.012274 0.287577 -4.884900
0.000000 0.000000 0.000000 0.000000 0.000000 -0.000000 -3.075930 91.694400 -0.257993 82.619700 -3.601710 4.192460 15.735700 0.000005 -0.000001 65.534600 86.334400 -60.725100 8.984550 -0.406207 -0.000000 -0.932084 -3.400020 9.589750 16.377300 -0.000001 -0.000001 13.516700 4.343320 7.843910 6.456720 -0.000001 -0.000000 3.816130 8.063540 7.103220 12.994200 -0.242716 4.980390 -92.104700 6.446580 -71.875800 5.348090 -0.000007 -0.000001 -77.400600 31.947000 2.127520 24.328600 0.000019 0.000005 13.382800 27.897400 -26.952600 22.291600 -0.000001 0.000005 -3.770950 5.037870 6.503310 12.994500 -0.242716 -4.980390 87.889500 6.064020 -70.768900 -5.348130 -0.000001 -0.000004 -69.185600 4.498010 -9.213030 -24.328900 0.000322 -0.000009 14.997700 -16.810500 -137.189000 -22.291500 -0.000108 -0.000004 55.549600 5.644600 -14.519000 -2.192480 -6.469440 -0.000000 -170.596000 0.427283 -3.559890 39.081100 -0.000007 -0.000012 0.459024 -0.794812 30.008800 40.985400 -0.000006 -0.000013 0.730341 6.388180 -77.703600 11.754300 -0.000000 0.000003 0.000327 0.161917 -10.009800 -2.192510 6.469440 -0.000001 -168.788000 4.264950 -176.232000 -39.081100 -0.002282 -0.040193 0.135911 -0.454978 16.246600 -40.985400 0.000008 0.000006 5.638700 2.733870 -71.535900 -11.754300 -0.000006 -0.000006 -0.012206 0.287108 -4.904130
